<svg xmlns="http://www.w3.org/2000/svg" viewBox="0 0 1000 1000" id="root">
    <defs>
        <style>.cls-1{fill:#f6416c;}.cls-2{fill:#ffde7d;}.cls-3{fill:#3a2a2a;}.cls-4{fill:#ddd;}</style>
        <style>
            #perso {
                transition: transform .8s ease-in-out;
                transform-origin: center;
            }
            #root:hover #perso {
                transform: rotate(360deg);
            }
        </style>
    </defs>
    <g id="pop">
        <g id="Rond">
            <path class="cls-1" d="M210,168.36v0c6.82,0,13.41.32,19.78.93a426.25,426.25,0,0,1,555.71,13.49c1.05,0,2.1.06,3.16.1a345.39,345.39,0,0,1,42.89,4.54q5.13.87,10.06,1.89C757.13,96.39,635.27,38,499.79,38A460.25,460.25,0,0,0,176,170.58l.16,0A277.49,277.49,0,0,1,210,168.36Z" />
            <path class="cls-1" d="M943.16,370.42q-.67,1.18-1.37,2.35A101.17,101.17,0,0,1,915.31,402,426.75,426.75,0,1,1,87.24,390.11l-9.6-77.67A460.12,460.12,0,0,0,38,499.79c0,255,206.73,461.75,461.75,461.75S961.54,754.81,961.54,499.79A461.91,461.91,0,0,0,943.16,370.42Z" />
        </g>
        <path class="cls-1" d="M307.74,352.49a89.37,89.37,0,0,0,18.15-35.58q5.12-20,2.2-43.66-6-48.76-44.8-72.9-28.91-18-73.3-18a262.28,262.28,0,0,0-32.1,2.1A339.92,339.92,0,0,0,136,192.34,182.25,182.25,0,0,0,99.6,205.41Q90.35,210,85.49,216.22T81.88,232.6L110,460q1.55,12.56,5.4,19.92a26.26,26.26,0,0,0,10.18,11,35,35,0,0,0,15,4.27q2.77.21,5.79.21a114.46,114.46,0,0,0,14-.93,178.51,178.51,0,0,0,22.27-4.22,135.36,135.36,0,0,0,16.3-5l-11-88.84,34.28-4.24q29.45-3.64,51-13.9T307.74,352.49Zm-72.9-38.54q-9.7,10.76-30,13.27l-25.59,3.16L170,255.53A80.94,80.94,0,0,1,180.24,253q5-.86,12.77-1.82a80.85,80.85,0,0,1,9.9-.64q14.84,0,24.4,6.45,12.56,8.5,14.84,26.84Q244.53,303.19,234.83,313.95Z" />
        <path class="cls-1" d="M829.19,202.24A329.74,329.74,0,0,0,788,197.88q-4.82-.2-9.43-.2a164.86,164.86,0,0,0-28,2.22q-9.87,1.68-16.12,6.12t-7.92,14.21L689.32,439.36q-2.06,12.1-.53,20a25.48,25.48,0,0,0,6.4,13.05,33.9,33.9,0,0,0,12.74,8.15,98.4,98.4,0,0,0,18.57,4.83,173.16,173.16,0,0,0,21.87,2.28q5.23.22,9.18.22,4.49,0,7.35-.28L779.44,402l33,5.61a185,185,0,0,0,30.93,2.79,132.68,132.68,0,0,0,20.32-1.5q22.86-3.53,39.3-14.38a86.69,86.69,0,0,0,26.78-28q10.33-17.15,14.21-40,8-47-21.31-80.21T829.19,202.24Zm32,110.28Q858,331.13,846,338.42q-8.25,5-20.06,5a68.76,68.76,0,0,1-11.49-1l-24.66-4.19,12.26-72.12H803a78,78,0,0,1,9.28.54q4.92.6,12.37,1.86,20.94,3.56,30.25,15T861.19,312.51Z" />
    </g>
    <g id="perso">
        <path id="Tracé_corps" data-name="Tracé corps" class="cls-2" d="M667,326.86a78.56,78.56,0,0,0-20.13-52.64,85.05,85.05,0,0,0-120.09-92A85,85,0,0,0,395.5,253.51c0,.51,0,1,0,1.54a79.19,79.19,0,0,0-37.21,48.65c-9.51,36.73,9.38,76.21,44,91.83a77.69,77.69,0,0,0,32.05,6.89c1,0,2.06,0,3.09-.07v5.3A32.39,32.39,0,0,0,469.76,440H570.68A32.39,32.39,0,0,0,603,407.65v-3.29A79.07,79.07,0,0,0,667,326.86Zm-78.95,69.95a69.37,69.37,0,0,1-41.64-13.74,4.5,4.5,0,0,0-5.36,7.23,78.31,78.31,0,0,0,47,15.51c2,0,4-.1,6-.25v2.09A23.38,23.38,0,0,1,570.68,431H469.76a23.38,23.38,0,0,1-23.35-23.35v-6.17a79.35,79.35,0,0,0,57.24-39.38,4.5,4.5,0,1,0-7.85-4.4c-17.61,31.42-57.07,44.43-89.83,29.63C375.34,373.49,358.59,338.5,367,306a70.15,70.15,0,0,1,29.26-40.82,83.91,83.91,0,0,0,7.94,25.94,4.5,4.5,0,1,0,8.07-4,75.25,75.25,0,0,1-7.8-33.58,76,76,0,0,1,113.2-66.3,84.93,84.93,0,0,0-32.8,38.73,4.5,4.5,0,1,0,8.29,3.51,76,76,0,0,1,144.66,44.08,4.49,4.49,0,0,0,.8,5,69.95,69.95,0,0,1-50.6,118.25Z" />
        <path id="mouse" class="cls-1" d="M546.74,310.62c0,19.82-11.81,35.88-26.37,35.88S494,330.43,494,310.62" />
        <g id="eye1">
            <circle class="cls-3" cx="473.5" cy="276.5" r="18.5" />
            <circle class="cls-4" cx="469.19" cy="271.41" r="9.3" />
            <circle class="cls-4" cx="478.49" cy="285.99" r="4.89" />
        </g>
        <g id="eye2">
            <circle class="cls-3" cx="567.5" cy="278.5" r="18.5" />
            <circle class="cls-4" cx="563.19" cy="273.41" r="9.3" />
            <circle class="cls-4" cx="572.49" cy="287.99" r="4.89" />
        </g>
    </g>
    <g id="corn">
        <path class="cls-1" d="M255,574a45.81,45.81,0,0,0-15.45,2.6,35.86,35.86,0,0,0-12.69,7.64,37.34,37.34,0,0,0-8.62,12.52A43.77,43.77,0,0,0,215,614.31q0,20.17,11.55,30.25t28.14,10.08a56,56,0,0,0,16.92-2.28,103.28,103.28,0,0,0,12.69-4.88,33.83,33.83,0,0,1,9.76,9.92,24.37,24.37,0,0,1,3.25,12.85q0,13.34-12.69,20.66t-35.13,7.32q-20.49,0-37.08-6A83.66,83.66,0,0,1,184,675.3a74.74,74.74,0,0,1-18.38-26.19,85.48,85.48,0,0,1-6.51-33.83q0-21.47,7-37.57a72.67,72.67,0,0,1,19-26.51,80.65,80.65,0,0,1,27.81-15.61,105.85,105.85,0,0,1,33.34-5.2q23.42,0,36.11,8.46t12.69,21.79a23.73,23.73,0,0,1-2.93,11.55,40.24,40.24,0,0,1-6.83,9.27,106.4,106.4,0,0,0-13.34-5A56.47,56.47,0,0,0,255,574Z" />
        <path class="cls-1" d="M573.13,693a75.65,75.65,0,0,1-10.25,2,104.77,104.77,0,0,1-14.48,1,76.49,76.49,0,0,1-12.85-1,21.88,21.88,0,0,1-9.6-3.9,18.74,18.74,0,0,1-6-8q-2.12-5-2.11-13.17V572.35a27.72,27.72,0,0,1,2.77-12.85,30.12,30.12,0,0,1,8-9.6,57.48,57.48,0,0,1,12.85-7.64,132.84,132.84,0,0,1,16.43-6,139.37,139.37,0,0,1,18.22-4.07,122.74,122.74,0,0,1,18.87-1.46q15.61,0,24.72,6t9.11,19.68a31.42,31.42,0,0,1-1.3,8.95,40.89,40.89,0,0,1-3.25,8q-6.83,0-14,.65t-14,2q-6.83,1.3-12.85,2.76a56.31,56.31,0,0,0-10.25,3.42Z" />
        <path class="cls-1" d="M764.73,593.17q0-10.08-5.69-14.8t-15.45-4.72a51.58,51.58,0,0,0-12.85,1.63,32.51,32.51,0,0,0-10.9,4.88V693a75.65,75.65,0,0,1-10.25,2,104.77,104.77,0,0,1-14.48,1,76.49,76.49,0,0,1-12.85-1,21.88,21.88,0,0,1-9.6-3.9,18.74,18.74,0,0,1-6-8q-2.12-5-2.11-13.17V572.35q0-8.78,3.74-14.31A39.45,39.45,0,0,1,678.53,548q11.05-7.81,27.81-12.69a133,133,0,0,1,37.25-4.88q36.75,0,56.6,16.1T820,591.21V693a75.65,75.65,0,0,1-10.25,2,104.77,104.77,0,0,1-14.48,1,76.49,76.49,0,0,1-12.85-1,21.88,21.88,0,0,1-9.6-3.9,18.74,18.74,0,0,1-6-8q-2.12-5-2.11-13.17Z" />
        <g id="Rond-2" data-name="Rond">
            <path class="cls-1" d="M400.94,532.83a82,82,0,1,0,82,82A82,82,0,0,0,400.94,532.83Zm0,10.93a24.12,24.12,0,1,1-24.12,24.12A24.12,24.12,0,0,1,400.94,543.75Zm-44.63,96.5a24.12,24.12,0,1,1,24.12-24.12A24.12,24.12,0,0,1,356.31,640.25Zm44.63,45.84A24.12,24.12,0,1,1,425.07,662,24.12,24.12,0,0,1,400.94,686.09Zm48.25-45.84a24.12,24.12,0,1,1,24.12-24.12A24.12,24.12,0,0,1,449.19,640.25Z" />
        </g>
    </g>
    <g id="Stars">
        <polygon class="cls-2" points="501.45 710 524.82 757.35 577.07 764.94 539.26 801.8 548.19 853.84 501.45 829.27 454.71 853.84 463.64 801.8 425.83 764.94 478.08 757.35 501.45 710" />
        <polygon class="cls-2" points="362.1 742.51 386.6 773.13 425.72 770.31 404.17 803.07 418.94 839.4 381.12 829.03 351.13 854.31 349.31 815.13 316 794.42 352.7 780.58 362.1 742.51" />
        <polygon class="cls-2" points="639.46 742.51 614.95 773.13 575.83 770.31 597.39 803.07 582.61 839.4 620.44 829.03 650.42 854.31 652.25 815.13 685.55 794.42 648.86 780.58 639.46 742.51" />
    </g>
</svg>